<?xml version="1.0" encoding="UTF-8"?><svg id="Layer_1" xmlns="http://www.w3.org/2000/svg" viewBox="0 0 369.32 32.85"><defs><style>.cls-1{fill:#93cbbf;}</style></defs><path class="cls-1" d="m5.48,1.89v19.18H0V1.89h5.48Zm10.39,20.33v4.7H0v-4.7h15.86Z"/><path class="cls-1" d="m24.29,14.98h7.81c-.06-1.36-.47-2.43-1.3-3.26-.8-.8-1.89-1.21-3.23-1.21s-2.34.41-3.2,1.21c-.83.8-1.24,1.86-1.6,3.26,0,0-.44,1.89.12,3.46.33,1.3.95,2.31,1.89,3.02.95.74,2.07,1.1,3.38,1.1.98,0,1.89-.18,2.81-.56.89-.35,1.69-.89,2.4-1.6l3.08,3.11c-1.04,1.18-2.31,2.07-3.79,2.69s-3.14.95-4.97.95c-2.16,0-4.05-.44-5.65-1.3-1.63-.86-2.87-2.1-3.76-3.67-.86-1.57-1.3-3.37-1.3-5.45s.44-3.91,1.33-5.5c.89-1.6,2.13-2.81,3.73-3.7,1.6-.89,3.43-1.3,5.51-1.3,3.28,0,5.8.95,7.52,2.84,1.72,1.93,2.58,4.56,2.58,7.96,0,.62-.03,1.09-.03,1.42h-13.32c-.15-.06-.86-2.28,0-3.46Z"/><path class="cls-1" d="m52.22,8.14v4.5h-13.47v-4.5h2.9V2.9h5.8v5.24h4.77Zm-4.77,5.71v5.27c0,1.69.62,2.54,1.87,2.54.83,0,1.78-.3,2.81-.83l1.21,4.62c-.74.47-1.57.89-2.52,1.13-.92.27-1.86.39-2.75.39-1.89,0-3.46-.56-4.65-1.75-1.18-1.15-1.78-2.84-1.78-5.03v-6.33h5.8Z"/><path class="cls-1" d="m56.23,6.19h4.47v8.58h-4.47V6.19Z"/><path class="cls-1" d="m75.75,22.79v4.17c-.71.12-1.48.18-2.28.18-1.78,0-3.46-.38-5.21-.86-1.3-.35-3.43-1.75-4.68-3.2l4.17-1.72c.77.53,1.01.68,1.83,1.01,1.45.59,2.75.86,3.94.86.92,0,1.69-.15,2.22-.44Zm6.27-1.87c0,1.3-.38,2.43-1.12,3.37-.74.92-1.75,1.63-3.02,2.1-.36.15-.74.27-1.1.36v-5.56c0-.5-.21-.95-.59-1.27-.39-.36-.86-.62-1.45-.83-.59-.21-1.42-.47-2.46-.74-1.51-.39-2.72-.77-3.67-1.15-.95-.39-1.75-.98-2.46-1.78-.68-.77-1.01-1.84-1.01-3.14s.36-2.31,1.04-3.23c.71-.92,1.72-1.6,2.99-2.1.39-.15.8-.29,1.24-.38v5.3c0,.71.36,1.27,1.07,1.63.71.38,1.84.77,3.32,1.18,1.51.41,2.75.8,3.7,1.21.98.41,1.81,1.01,2.48,1.84.68.8,1.04,1.87,1.04,3.2Zm-.71-11.66l-3.49,2.22c-.35-.27-.27-.27-1.39-.77-1.21-.53-2.34-.56-3.22-.56-.71,0-1.3.12-1.78.3v-4.08c.68-.09,1.39-.15,2.16-.15,1.51,0,2.4.06,3.85.45,1.45.41,3.26,1.66,3.88,2.6Z"/><path class="cls-1" d="m103.28,11.84c-.86.95-1.27,2.16-1.3,3.64.03,1.48.44,2.69,1.27,3.61.83.92,1.92,1.39,3.28,1.39s2.43-.47,3.26-1.39c.03-.03.06-.03.06-.06v4.82c-.29.18-.59.27-1.09.44-1.04.36-2.22.44-3.52.36-1.63-.06-3.11-.39-4.38-1.15-1.3-.77-2.28-1.87-2.99-3.29-.71-1.42-1.07-3.05-1.07-4.88s.36-3.4,1.07-4.8c.71-1.36,1.69-2.46,2.99-3.2,1.27-.77,2.75-1.15,4.38-1.15,1.24,0,2.1.06,3.14.39.71.21,1.13.35,1.48.53v4.79l-.06-.06c-.83-.92-1.93-1.39-3.26-1.39s-2.43.47-3.26,1.39Zm13.26-5.48v17.52c0,1.81-.41,3.41-1.27,4.74-.86,1.36-2.07,2.4-3.64,3.14-1.54.74-3.34,1.1-5.39,1.1-1.57,0-3.08-.24-4.5-.68-1.42-.44-2.72-1.07-3.91-1.87l2.07-3.88c1.81,1.3,3.82,1.93,5.98,1.93,1.6,0,2.84-.39,3.79-1.15.92-.77,1.39-1.84,1.39-3.14v-1.07l-.03-6.99c.03-.18.03-.35.03-.53,0-.21,0-.38-.03-.59l-.03-7.07s.03.03.06.03v-1.48h5.48Z"/><path class="cls-1" d="m126.39,6.22v20.72h-5.95V6.22h5.95Zm7.84,3.32c0,.98-.33,1.78-.92,2.4-.59.59-1.39.92-2.34.92s-1.69-.33-2.28-.95c-.59-.62-.92-1.42-.92-2.37s.33-1.78.92-2.4c.59-.62,1.36-.92,2.28-.92s1.75.3,2.34.92c.59.62.92,1.42.92,2.4Z"/><path class="cls-1" d="m150.31,20.63v5.98c-1.18.36-2.46.53-3.85.53-2.19,0-4.11-.44-5.77-1.33-1.69-.86-2.96-2.1-3.88-3.7-.92-1.57-1.39-3.4-1.39-5.48s.47-3.91,1.39-5.48c.92-1.6,2.19-2.81,3.88-3.67l.74-.35v8.17c-.09.44-.12.92-.12,1.42,0,1.69.47,3.05,1.42,4.08s2.19,1.57,3.73,1.57,2.72-.53,3.67-1.57l.18-.18Zm7.13-4c0,2.07-.44,3.91-1.36,5.48-.92,1.6-2.22,2.84-3.88,3.7-.24.15-.47.24-.71.35v-8.32c.06-.35.09-.74.09-1.13,0-1.69-.47-3.05-1.45-4.08-.95-1.03-2.16-1.57-3.67-1.57s-2.78.53-3.73,1.57l-.09.12v-6.07c1.15-.33,2.43-.5,3.82-.5,2.16,0,4.08.44,5.74,1.3,1.66.86,2.96,2.07,3.88,3.67.92,1.57,1.36,3.41,1.36,5.48Z"/><path class="cls-1" d="m169.46,23.89l-1.15,3.05h-3.02l-7.84-20.69,6.13-.03,3.23,10,1.24,3.79,1.42,3.88Zm8.91-2.66l.98,2.66-1.15,3.05h-3.02l-1.15-3.05-2.28-5.98-1.6,4.26-1.07-2.81-1.75-4.74,1.45-4.5,1.24-3.88.03-.03h1.69l1.72.03,1.24,3.88,1.98,6.1,1.21,3.79.47,1.21Zm1.63.95l-1.04-2.81-1.77-4.74,2.72-8.41,6.13.03-6.04,15.92Z"/><path class="cls-1" d="m213.84,8.14v4.5h-13.47v-4.5h2.9V2.9h5.8v5.24h4.76Zm-4.76,5.71v5.27c0,1.69.62,2.54,1.86,2.54.83,0,1.78-.3,2.81-.83l1.21,4.62c-.74.47-1.57.89-2.52,1.13-.92.27-1.87.39-2.75.39-1.89,0-3.46-.56-4.65-1.75-1.18-1.15-1.77-2.84-1.77-5.03v-6.33h5.8Z"/><path class="cls-1" d="m230.88,20.63v5.98c-1.18.36-2.46.53-3.85.53-2.19,0-4.11-.44-5.77-1.33-1.69-.86-2.96-2.1-3.88-3.7-.92-1.57-1.39-3.4-1.39-5.48s.47-3.91,1.39-5.48c.92-1.6,2.19-2.81,3.88-3.67l.74-.35v8.17c-.09.44-.12.92-.12,1.42,0,1.69.47,3.05,1.42,4.08s2.19,1.57,3.73,1.57,2.72-.53,3.67-1.57l.18-.18Zm7.13-4c0,2.07-.44,3.91-1.36,5.48-.92,1.6-2.22,2.84-3.88,3.7-.24.15-.47.24-.71.35v-8.32c.06-.35.09-.74.09-1.13,0-1.69-.47-3.05-1.45-4.08-.95-1.03-2.16-1.57-3.67-1.57s-2.78.53-3.73,1.57l-.09.12v-6.07c1.15-.33,2.43-.5,3.82-.5,2.16,0,4.08.44,5.74,1.3,1.66.86,2.96,2.07,3.88,3.67.92,1.57,1.36,3.41,1.36,5.48Z"/><path class="cls-1" d="m246.76,11.84c-.86.95-1.27,2.16-1.3,3.64.03,1.48.44,2.69,1.27,3.61.83.92,1.92,1.39,3.28,1.39s2.43-.47,3.26-1.39c.03-.03.06-.03.06-.06v4.82c-.29.18-.59.27-1.09.44-1.04.36-2.22.44-3.52.36-1.63-.06-3.11-.39-4.38-1.15-1.3-.77-2.28-1.87-2.99-3.29-.71-1.42-1.07-3.05-1.07-4.88s.36-3.4,1.07-4.8c.71-1.36,1.69-2.46,2.99-3.2,1.27-.77,2.75-1.15,4.38-1.15,1.24,0,2.1.06,3.14.39.71.21,1.13.35,1.48.53v4.79l-.06-.06c-.83-.92-1.93-1.39-3.26-1.39s-2.43.47-3.26,1.39Zm13.26-5.48v17.52c0,1.81-.41,3.41-1.27,4.74-.86,1.36-2.07,2.4-3.64,3.14-1.54.74-3.34,1.1-5.39,1.1-1.57,0-3.08-.24-4.5-.68-1.42-.44-2.72-1.07-3.91-1.87l2.07-3.88c1.81,1.3,3.82,1.93,5.98,1.93,1.6,0,2.84-.39,3.79-1.15.92-.77,1.39-1.84,1.39-3.14v-1.07l-.03-6.99c.03-.18.03-.35.03-.53,0-.21,0-.38-.03-.59l-.03-7.07s.03.03.06.03v-1.48h5.48Z"/><path class="cls-1" d="m269.89,14.98h7.82c-.06-1.36-.47-2.43-1.3-3.26-.8-.8-1.89-1.21-3.22-1.21s-2.34.41-3.2,1.21c-.83.8-1.24,1.86-1.6,3.26,0,0-.44,1.89.12,3.46.33,1.3.95,2.31,1.89,3.02.95.74,2.07,1.1,3.37,1.1.98,0,1.89-.18,2.81-.56.89-.35,1.69-.89,2.4-1.6l3.08,3.11c-1.04,1.18-2.31,2.07-3.79,2.69s-3.14.95-4.97.95c-2.16,0-4.06-.44-5.65-1.3-1.63-.86-2.87-2.1-3.76-3.67-.86-1.57-1.3-3.37-1.3-5.45s.44-3.91,1.33-5.5c.89-1.6,2.13-2.81,3.73-3.7,1.6-.89,3.43-1.3,5.5-1.3,3.29,0,5.8.95,7.52,2.84,1.72,1.93,2.57,4.56,2.57,7.96,0,.62-.03,1.09-.03,1.42h-13.32c-.15-.06-.86-2.28,0-3.46Z"/><path class="cls-1" d="m298.37,8.14v4.5h-13.47v-4.5h2.9V2.9h5.8v5.24h4.76Zm-4.76,5.71v5.27c0,1.69.62,2.54,1.86,2.54.83,0,1.78-.3,2.81-.83l1.21,4.62c-.74.47-1.57.89-2.52,1.13-.92.27-1.87.39-2.75.39-1.89,0-3.46-.56-4.65-1.75-1.18-1.15-1.77-2.84-1.77-5.03v-6.33h5.8Z"/><path class="cls-1" d="m306.84,9.47v6.69c-.06.35-.09.74-.09,1.15v9.62h-5.59V0h5.59v9.56l.09-.09Zm13.85,5.18v12.28h-5.6v-10.65c0-1.21-.33-2.19-1.03-2.93-.68-.71-1.63-1.07-2.81-1.07-1.33.03-2.4.47-3.2,1.36v-5.09c1.66-1.15,2.9-1.42,5.44-1.39,2.37.06,3.97.68,5.27,2.04,1.27,1.36,1.93,3.17,1.93,5.45Z"/><path class="cls-1" d="m330.86,14.98h7.82c-.06-1.36-.47-2.43-1.3-3.26-.8-.8-1.89-1.21-3.22-1.21s-2.34.41-3.2,1.21c-.83.8-1.24,1.86-1.6,3.26,0,0-.44,1.89.12,3.46.33,1.3.95,2.31,1.89,3.02.95.74,2.07,1.1,3.37,1.1.98,0,1.89-.18,2.81-.56.89-.35,1.69-.89,2.4-1.6l3.08,3.11c-1.04,1.18-2.31,2.07-3.79,2.69s-3.14.95-4.97.95c-2.16,0-4.06-.44-5.65-1.3-1.63-.86-2.87-2.1-3.76-3.67-.86-1.57-1.3-3.37-1.3-5.45s.44-3.91,1.33-5.5c.89-1.6,2.13-2.81,3.73-3.7,1.6-.89,3.43-1.3,5.5-1.3,3.29,0,5.8.95,7.52,2.84,1.72,1.93,2.57,4.56,2.57,7.96,0,.62-.03,1.09-.03,1.42h-13.32c-.15-.06-.86-2.28,0-3.46Z"/><path class="cls-1" d="m353,6.22v20.72h-5.95V6.22h5.95Zm7.84,3.32c0,.98-.33,1.78-.92,2.4-.59.59-1.39.92-2.34.92s-1.69-.33-2.28-.95c-.59-.62-.92-1.42-.92-2.37s.33-1.78.92-2.4c.59-.62,1.36-.92,2.28-.92s1.75.3,2.34.92c.59.62.92,1.42.92,2.4Z"/><path class="cls-1" d="m366.36,21.61c1.66,0,2.81,1.12,2.81,2.75s-1.15,2.81-2.81,2.81-2.78-1.15-2.78-2.81,1.15-2.75,2.78-2.75Zm-2.72-15.36h5.68v5.39l-1.04,7.9h-3.58l-1.07-7.9v-5.39Z"/></svg>